<svg width="533" height="119" viewBox="0 0 533 119" fill="none" xmlns="http://www.w3.org/2000/svg">
<path d="M73.4766 34.2187H53.9453C53.6849 32.2135 53.151 30.4036 52.3437 28.7891C51.5365 27.1745 50.4688 25.7943 49.1406 24.6484C47.8125 23.5026 46.237 22.6302 44.4141 22.0312C42.6172 21.4062 40.625 21.0937 38.4375 21.0937C34.5573 21.0937 31.2109 22.0443 28.3984 23.9453C25.612 25.8464 23.4635 28.5937 21.9531 32.1875C20.4688 35.7812 19.7266 40.1302 19.7266 45.2344C19.7266 50.5469 20.4818 55 21.9922 58.5938C23.5286 62.1615 25.6771 64.8568 28.4375 66.6797C31.224 68.4766 34.5182 69.375 38.3203 69.375C40.4557 69.375 42.3958 69.1016 44.1406 68.5547C45.9115 68.0078 47.4609 67.2135 48.7891 66.1719C50.1432 65.1042 51.25 63.8151 52.1094 62.3047C52.9948 60.7682 53.6068 59.0365 53.9453 57.1094L73.4766 57.2266C73.138 60.7682 72.1094 64.2578 70.3906 67.6953C68.6979 71.1328 66.3672 74.2708 63.3984 77.1094C60.4297 79.9219 56.8099 82.1615 52.5391 83.8281C48.2943 85.4948 43.4245 86.3281 37.9297 86.3281C30.6901 86.3281 24.2057 84.7396 18.4766 81.5625C12.7734 78.3594 8.26823 73.6979 4.96094 67.5781C1.65365 61.4583 -3.72529e-08 54.0104 -3.72529e-08 45.2344C-3.72529e-08 36.4323 1.67969 28.9714 5.03906 22.8516C8.39844 16.7318 12.9427 12.0833 18.6719 8.90625C24.401 5.72916 30.8203 4.14062 37.9297 4.14062C42.7734 4.14062 47.2526 4.81771 51.3672 6.17188C55.4818 7.5 59.1016 9.45312 62.2266 12.0312C65.3516 14.5833 67.8906 17.7214 69.8438 21.4453C71.7969 25.1693 73.0078 29.4271 73.4766 34.2187Z" fill="#1C3972"/>
<path d="M106.867 86.3672C100.565 86.3672 95.1484 85.0781 90.6172 82.5C86.112 79.8958 82.6354 76.276 80.1875 71.6406C77.7656 66.9792 76.5547 61.5755 76.5547 55.4297C76.5547 49.2578 77.7656 43.8542 80.1875 39.2187C82.6354 34.5573 86.112 30.9375 90.6172 28.3594C95.1484 25.7552 100.565 24.4531 106.867 24.4531C113.169 24.4531 118.573 25.7552 123.078 28.3594C127.609 30.9375 131.086 34.5573 133.508 39.2187C135.956 43.8542 137.18 49.2578 137.18 55.4297C137.18 61.5755 135.956 66.9792 133.508 71.6406C131.086 76.276 127.609 79.8958 123.078 82.5C118.573 85.0781 113.169 86.3672 106.867 86.3672ZM106.984 71.9531C109.276 71.9531 111.216 71.25 112.805 69.8437C114.393 68.4375 115.604 66.4844 116.438 63.9844C117.297 61.4844 117.727 58.5937 117.727 55.3125C117.727 51.9792 117.297 49.0625 116.438 46.5625C115.604 44.0625 114.393 42.1094 112.805 40.7031C111.216 39.2969 109.276 38.5937 106.984 38.5937C104.615 38.5937 102.609 39.2969 100.969 40.7031C99.3542 42.1094 98.1172 44.0625 97.2578 46.5625C96.4245 49.0625 96.0078 51.9792 96.0078 55.3125C96.0078 58.5937 96.4245 61.4844 97.2578 63.9844C98.1172 66.4844 99.3542 68.4375 100.969 69.8437C102.609 71.25 104.615 71.9531 106.984 71.9531ZM146.965 85.2344V25.2344H166.066V85.2344H146.965ZM156.535 18.2422C153.853 18.2422 151.548 17.3568 149.621 15.5859C147.694 13.7891 146.73 11.6276 146.73 9.10156C146.73 6.60156 147.694 4.46614 149.621 2.69531C151.548 0.898434 153.853 -4.76837e-06 156.535 -4.76837e-06C159.243 -4.76837e-06 161.548 0.898434 163.449 2.69531C165.376 4.46614 166.34 6.60156 166.34 9.10156C166.34 11.6276 165.376 13.7891 163.449 15.5859C161.548 17.3568 159.243 18.2422 156.535 18.2422ZM197.326 51.0156V85.2344H178.225V25.2344H196.389V36.25H197.053C198.381 32.5781 200.646 29.7005 203.85 27.6172C207.053 25.5078 210.868 24.4531 215.295 24.4531C219.514 24.4531 223.173 25.4036 226.271 27.3047C229.396 29.1797 231.818 31.8099 233.537 35.1953C235.282 38.5547 236.141 42.487 236.115 46.9922V85.2344H217.014V50.7422C217.04 47.4089 216.193 44.8047 214.475 42.9297C212.782 41.0547 210.425 40.1172 207.404 40.1172C205.399 40.1172 203.628 40.5599 202.092 41.4453C200.581 42.3047 199.41 43.5417 198.576 45.1562C197.769 46.7708 197.352 48.724 197.326 51.0156Z" fill="#F28C36"/>
<path d="M227.242 20.9375V5.23437H294.859V20.9375H270.602V85.2344H251.539V20.9375H227.242ZM298.072 85.2344V25.2344H316.627V36.1719H317.252C318.346 32.2135 320.13 29.2708 322.604 27.3437C325.077 25.3906 327.955 24.4141 331.236 24.4141C332.122 24.4141 333.033 24.4792 333.971 24.6094C334.908 24.7135 335.781 24.8828 336.588 25.1172V41.7187C335.676 41.4062 334.479 41.1589 332.994 40.9766C331.536 40.7943 330.234 40.7031 329.088 40.7031C326.822 40.7031 324.778 41.2109 322.955 42.2266C321.158 43.2161 319.739 44.6094 318.697 46.4062C317.682 48.1771 317.174 50.2604 317.174 52.6562V85.2344H298.072ZM359.029 86.25C355.201 86.25 351.803 85.612 348.834 84.3359C345.891 83.0339 343.561 81.0807 341.842 78.4766C340.149 75.8464 339.303 72.5521 339.303 68.5938C339.303 65.2604 339.889 62.4479 341.061 60.1562C342.232 57.8646 343.847 56.0026 345.904 54.5703C347.962 53.138 350.331 52.0573 353.014 51.3281C355.696 50.5729 358.561 50.0651 361.607 49.8047C365.019 49.4922 367.766 49.1667 369.85 48.8281C371.933 48.4635 373.443 47.9557 374.381 47.3047C375.344 46.6276 375.826 45.6771 375.826 44.4531V44.2578C375.826 42.2526 375.136 40.7031 373.756 39.6094C372.376 38.5156 370.514 37.9688 368.17 37.9688C365.644 37.9688 363.613 38.5156 362.076 39.6094C360.54 40.7031 359.563 42.2135 359.146 44.1406L341.529 43.5156C342.05 39.8698 343.391 36.6146 345.553 33.75C347.74 30.8594 350.735 28.5938 354.537 26.9531C358.365 25.2865 362.962 24.4531 368.326 24.4531C372.154 24.4531 375.683 24.9089 378.912 25.8203C382.141 26.7057 384.954 28.0078 387.35 29.7266C389.745 31.4193 391.594 33.5026 392.896 35.9766C394.225 38.4505 394.889 41.276 394.889 44.4531V85.2344H376.92V76.875H376.451C375.383 78.9062 374.016 80.625 372.35 82.0312C370.709 83.4375 368.769 84.4922 366.529 85.1953C364.316 85.8984 361.816 86.25 359.029 86.25ZM364.928 73.75C366.985 73.75 368.834 73.3333 370.475 72.5C372.141 71.6667 373.469 70.5208 374.459 69.0625C375.449 67.5781 375.943 65.8594 375.943 63.9062V58.2031C375.396 58.4896 374.732 58.75 373.951 58.9844C373.196 59.2187 372.363 59.4401 371.451 59.6484C370.54 59.8568 369.602 60.0391 368.639 60.1953C367.675 60.3516 366.751 60.4948 365.865 60.625C364.068 60.9115 362.532 61.3542 361.256 61.9531C360.006 62.5521 359.042 63.3333 358.365 64.2969C357.714 65.2344 357.389 66.3542 357.389 67.6562C357.389 69.6354 358.092 71.1458 359.498 72.1875C360.93 73.2292 362.74 73.75 364.928 73.75ZM434.576 86.3672C428.248 86.3672 422.818 85.0651 418.287 82.4609C413.782 79.8568 410.318 76.237 407.896 71.6016C405.475 66.9401 404.264 61.5495 404.264 55.4297C404.264 49.2839 405.475 43.8932 407.896 39.2578C410.344 34.5964 413.821 30.9635 418.326 28.3594C422.857 25.7552 428.261 24.4531 434.537 24.4531C440.084 24.4531 444.915 25.4557 449.029 27.4609C453.17 29.4661 456.399 32.3047 458.717 35.9766C461.061 39.6224 462.298 43.9062 462.428 48.8281H444.576C444.212 45.7552 443.17 43.3464 441.451 41.6016C439.758 39.8568 437.545 38.9844 434.811 38.9844C432.597 38.9844 430.657 39.6094 428.99 40.8594C427.324 42.0833 426.021 43.9062 425.084 46.3281C424.173 48.724 423.717 51.6927 423.717 55.2344C423.717 58.776 424.173 61.7708 425.084 64.2187C426.021 66.6406 427.324 68.4766 428.99 69.7266C430.657 70.9505 432.597 71.5625 434.811 71.5625C436.581 71.5625 438.144 71.1849 439.498 70.4297C440.878 69.6745 442.011 68.5677 442.896 67.1094C443.782 65.625 444.342 63.8281 444.576 61.7187H462.428C462.245 66.6667 461.008 70.9896 458.717 74.6875C456.451 78.3854 453.261 81.263 449.146 83.3203C445.058 85.3516 440.201 86.3672 434.576 86.3672ZM489.43 69.4922L489.508 46.7187H492.164L509.039 25.2344H530.68L505.602 56.0156H500.563L489.43 69.4922ZM472.203 85.2344V5.23437H491.305V85.2344H472.203ZM509.469 85.2344L493.766 60.3125L506.344 46.7578L531.539 85.2344H509.469Z" fill="#41BFC7"/>
<path d="M383.305 94.2344C347.305 92.7344 277.805 102.401 247.305 108.734C288.105 102.334 344.305 99.7344 383.305 99.7344C422.305 99.7344 493.305 110.068 531.805 117.734C487.405 97.7344 419.305 95.7344 383.305 94.2344Z" fill="#FAC046" stroke="#FAC046"/>
</svg>
